<?xml version="1.0" standalone="no"?>
<!DOCTYPE svg PUBLIC "-//W3C//DTD SVG 20010904//EN"
 "http://www.w3.org/TR/2001/REC-SVG-20010904/DTD/svg10.dtd">
<svg version="1.0" xmlns="http://www.w3.org/2000/svg"
 width="300.000000pt" height="300.000000pt" viewBox="0 0 300.000000 300.000000"
 preserveAspectRatio="xMidYMid meet">
<metadata>
Created by potrace 1.14, written by Peter Selinger 2001-2017
</metadata>
<g transform="translate(0.000000,300.000000) scale(0.100000,-0.100000)"
fill="#000000" stroke="none">
<path d="M2301 2592 c3 -21 -3 -31 -15 -26 -8 3 -17 0 -22 -7 -5 -8 -3 -10 6
-4 9 5 11 4 6 -4 -6 -9 -11 -9 -24 1 -12 10 -14 10 -8 1 4 -8 2 -13 -4 -13 -6
0 -8 -5 -4 -12 5 -8 0 -7 -11 2 -10 8 -16 10 -12 3 9 -14 -26 -36 -39 -25 -5
4 -2 -1 6 -11 10 -14 11 -17 0 -15 -7 2 -15 -3 -17 -10 -3 -8 1 -10 14 -6 13
5 12 2 -5 -10 -13 -10 -19 -22 -15 -29 5 -9 3 -9 -8 -1 -8 6 -22 10 -32 8 -11
-1 -16 0 -13 3 5 5 -23 38 -33 38 -9 0 -81 46 -81 51 0 3 4 2 10 -1 6 -3 7 1
3 10 -4 12 -8 13 -13 5 -5 -8 -13 -9 -26 -2 -23 11 -46 5 -38 -11 3 -7 -1 -4
-9 6 -15 18 -15 18 -20 0 -4 -15 -5 -16 -6 -1 -1 17 -41 22 -41 5 0 -5 -8 -3
-17 4 -11 10 -14 10 -9 2 4 -7 2 -13 -3 -13 -6 0 -11 5 -11 11 0 8 -6 7 -17
-2 -15 -12 -16 -12 -8 1 6 12 5 12 -5 3 -7 -6 -19 -9 -28 -6 -10 4 -13 2 -8
-5 3 -6 1 -14 -5 -18 -7 -4 -9 -3 -5 4 3 6 2 13 -4 17 -5 3 -10 1 -10 -6 0 -7
-3 -9 -7 -6 -3 4 -12 -1 -19 -11 -12 -15 -12 -14 -8 8 l5 25 -15 -25 c-11 -18
-23 -25 -47 -25 -20 0 -34 -6 -36 -15 -4 -13 -3 -13 7 0 10 13 11 13 7 0 -2
-9 -14 -15 -31 -14 -19 1 -26 -3 -22 -12 3 -7 1 -16 -4 -19 -6 -4 -10 -1 -10
6 0 7 -7 4 -16 -7 -8 -10 -13 -13 -9 -7 4 9 1 11 -10 7 -12 -5 -13 -9 -4 -20
7 -8 9 -17 5 -21 -3 -3 -6 -2 -6 4 0 6 -7 13 -15 17 -8 3 -14 2 -14 -2 3 -20
-2 -25 -12 -12 -9 12 -10 11 -6 -5 3 -15 -1 -21 -15 -22 -10 -1 -16 3 -12 8 3
6 -3 5 -14 -2 -12 -7 -18 -17 -15 -23 4 -5 -1 -7 -12 -2 -15 5 -16 4 -6 -8 9
-11 9 -16 0 -22 -8 -4 -9 -3 -5 4 4 7 1 12 -9 12 -10 0 -13 -5 -9 -12 5 -8 2
-9 -10 -5 -11 5 -15 3 -10 -5 5 -8 2 -9 -9 -5 -9 3 -20 0 -24 -7 -5 -7 -16
-16 -27 -19 -12 -5 -16 -13 -12 -23 5 -14 4 -15 -9 -4 -13 11 -18 10 -28 -4
-7 -10 -25 -19 -39 -19 -15 -1 -26 -6 -25 -12 1 -5 -4 -9 -10 -8 -7 2 -13 -5
-14 -15 0 -9 -3 -12 -6 -5 -3 10 -7 10 -18 0 -7 -7 -10 -16 -7 -22 3 -5 -3 -3
-13 5 -11 9 -16 10 -11 3 4 -7 3 -13 -1 -13 -5 0 -15 6 -22 13 -11 10 -11 8
-1 -13 7 -14 9 -22 5 -18 -5 4 -15 2 -24 -5 -14 -11 -15 -10 -1 8 15 19 15 19
-12 0 -15 -11 -28 -24 -28 -29 0 -5 -7 -3 -16 4 -8 8 -14 9 -13 4 4 -23 -3
-33 -22 -29 -15 3 -19 0 -15 -11 4 -12 2 -12 -14 -4 -16 9 -18 8 -14 -5 4 -9
0 -15 -9 -15 -8 0 -18 -6 -20 -12 -4 -10 -6 -10 -6 0 -1 6 -5 12 -11 12 -5 0
-6 -8 -3 -17 6 -16 5 -16 -10 -4 -15 11 -18 11 -24 -5 -5 -11 -15 -19 -23 -19
-8 0 -15 -5 -15 -12 0 -6 -4 -15 -9 -20 -5 -5 -6 -3 -2 5 4 6 2 12 -3 12 -6 0
-11 -4 -11 -10 0 -5 -9 -10 -20 -10 -11 0 -20 -5 -20 -11 0 -5 -4 -7 -10 -4
-5 3 -10 -2 -10 -12 0 -15 -2 -16 -10 -3 -8 13 -10 13 -10 -1 0 -9 -7 -20 -16
-23 -15 -6 -15 -4 -3 10 13 16 12 16 -8 3 -12 -7 -20 -15 -18 -17 8 -8 -31
-38 -44 -34 -9 4 -12 1 -7 -6 4 -8 2 -10 -8 -6 -9 3 -19 -3 -26 -16 -6 -12
-18 -19 -25 -16 -7 2 -19 -3 -27 -12 -8 -10 -8 -13 -1 -9 6 4 15 3 18 -3 4 -6
3 -10 -2 -9 -21 4 -43 -2 -43 -12 0 -5 5 -7 12 -3 7 4 8 3 4 -5 -4 -6 -12 -9
-17 -6 -5 4 -9 2 -9 -4 0 -6 -6 -8 -12 -6 -7 2 -22 -8 -32 -23 -20 -27 -20
-27 0 -9 12 9 24 17 29 17 4 0 -4 -9 -18 -20 -14 -11 -30 -20 -35 -20 -6 0
-14 -5 -18 -12 -4 -6 -3 -8 3 -5 5 3 10 0 10 -9 0 -10 -7 -12 -20 -8 -13 4
-17 2 -13 -5 4 -6 2 -11 -3 -11 -6 0 -11 -5 -11 -11 0 -5 6 -7 13 -3 8 5 8 3
-2 -9 -7 -9 -18 -14 -24 -10 -6 3 -7 1 -3 -6 4 -6 3 -17 -2 -24 -5 -7 -10 -19
-10 -27 -1 -8 -3 -28 -5 -45 -3 -16 0 -36 7 -44 8 -11 8 -13 0 -8 -7 4 -15 0
-18 -9 -3 -8 -2 -12 4 -9 5 3 8 -3 7 -14 0 -11 -5 -17 -9 -15 -4 3 -8 -4 -8
-15 0 -12 -5 -21 -11 -21 -6 0 -9 -9 -6 -20 3 -12 1 -18 -5 -14 -7 5 -9 -2 -6
-19 3 -15 1 -24 -3 -21 -5 3 -9 -4 -9 -15 0 -11 -5 -23 -11 -27 -8 -4 -7 -9 2
-15 11 -7 10 -9 -3 -9 -9 0 -20 -5 -24 -12 -5 -7 -3 -8 5 -3 8 4 7 -2 -3 -17
-9 -14 -13 -29 -9 -33 5 -5 0 -4 -9 3 -14 12 -16 10 -11 -8 4 -13 0 -26 -8
-31 -12 -7 -12 -9 1 -9 12 -1 11 -3 -3 -11 -15 -9 -16 -13 -5 -27 7 -9 8 -13
2 -9 -7 4 -14 0 -17 -7 -3 -8 -1 -17 6 -19 9 -3 8 -8 -2 -18 -12 -12 -13 -12
-6 0 6 10 4 12 -4 6 -9 -5 -9 -11 -3 -17 7 -7 6 -21 -3 -42 -9 -23 -13 -115
-13 -359 l0 -327 1367 2 1366 3 1 190 c1 179 -5 222 -28 208 -5 -2 -8 3 -8 13
0 9 -10 25 -22 35 -11 11 -16 19 -9 19 9 0 8 5 -3 15 -8 8 -19 15 -25 15 -5 0
-8 9 -6 19 2 13 -3 21 -17 24 -14 4 -19 11 -14 23 5 12 2 15 -11 10 -10 -4
-14 -4 -10 0 9 9 -13 35 -23 29 -5 -3 -11 4 -15 15 -3 11 -11 20 -16 20 -6 0
-7 5 -4 10 3 6 1 10 -5 10 -15 0 -41 26 -33 34 4 3 -4 6 -16 6 -19 0 -21 4
-16 23 6 18 5 20 -6 9 -15 -14 -33 -16 -25 -3 3 5 -1 11 -9 15 -8 3 -15 13
-15 22 0 14 -2 15 -17 3 -11 -10 -14 -10 -9 -1 7 11 -5 17 -28 13 -5 -1 -3 5
4 14 11 13 10 15 -3 9 -12 -4 -18 2 -23 21 -5 19 -11 25 -23 21 -12 -5 -11 -2
3 9 10 8 24 11 30 7 17 -10 37 -11 30 -1 -3 5 -11 6 -17 3 -7 -4 -8 -3 -4 2 5
5 12 9 15 9 4 0 13 4 20 9 7 4 16 5 19 2 4 -3 1 -6 -5 -6 -7 0 -12 -5 -12 -10
0 -7 7 -7 21 0 13 8 18 18 15 28 -5 13 -2 12 9 -2 15 -19 15 -19 15 3 0 21 2
22 16 10 15 -12 16 -11 10 9 -5 16 -3 22 8 22 8 0 18 5 22 12 5 8 1 9 -12 5
-18 -7 -18 -6 -1 7 14 10 15 15 5 19 -8 4 -7 6 5 6 9 1 17 6 17 12 0 5 -4 7
-10 4 -5 -3 -10 -1 -10 4 0 6 8 11 18 11 13 0 14 2 4 9 -21 13 -19 23 6 32 12
5 22 16 22 26 0 16 2 16 11 3 9 -12 10 -11 6 7 -4 20 -3 21 15 12 18 -10 19
-9 7 13 -11 20 -10 21 3 11 11 -10 17 -10 26 -1 15 15 16 38 1 38 -5 0 -7 5
-4 10 4 6 11 7 17 4 5 -4 4 4 -3 17 -11 22 -11 23 4 11 13 -11 15 -10 10 7 -3
13 -1 21 6 21 7 0 9 5 5 12 -5 8 -2 9 11 4 15 -5 16 -4 5 9 -7 9 -9 15 -4 13
5 -2 11 2 13 7 3 6 11 16 18 23 15 16 18 36 3 27 -6 -3 -7 1 -4 9 3 9 11 16
17 16 6 0 7 3 4 7 -4 3 -2 12 4 20 7 8 8 13 1 13 -5 0 -9 15 -8 33 2 17 -2 38
-8 46 -8 11 -8 13 1 8 6 -4 15 -2 19 4 4 8 3 9 -4 5 -7 -4 -12 -2 -12 4 0 6
-4 9 -8 6 -4 -2 -9 5 -9 16 -1 12 -8 25 -15 29 -10 7 -10 9 2 9 12 1 11 3 -3
11 -14 8 -16 14 -6 25 10 12 9 13 -7 8 -15 -4 -13 -1 6 16 14 12 18 19 10 15
-9 -4 -8 0 3 8 10 9 18 18 18 21 -1 3 -1 7 0 9 7 27 4 65 -4 60 -7 -4 -8 0 -4
11 5 13 3 17 -7 13 -10 -4 -13 -1 -9 8 3 8 8 13 12 10 4 -2 8 2 8 10 0 8 -7
15 -15 15 -9 0 -13 7 -9 20 3 11 1 20 -5 20 -5 0 -8 6 -5 13 2 6 -3 18 -12 25
-9 8 -10 10 -2 7 9 -5 8 1 -4 19 -9 14 -22 23 -28 19 -6 -4 -8 0 -4 10 6 17
-40 74 -57 69 -5 -2 -4 3 3 12 10 12 8 16 -8 21 -12 3 -21 11 -21 16 0 6 -4 7
-10 4 -5 -3 -10 1 -10 9 0 9 -5 16 -11 16 -5 0 -7 6 -3 13 5 7 2 7 -10 -2 -9
-8 -16 -10 -15 -5 5 27 -2 46 -16 40 -8 -3 -14 0 -12 7 1 7 -3 11 -10 10 -8
-2 -10 4 -6 14 4 11 3 14 -5 9 -7 -4 -12 -3 -12 2 0 5 -9 12 -20 15 -11 3 -19
11 -18 18 2 7 -3 13 -10 14 -8 0 -21 9 -29 20 -13 16 -15 17 -10 3 8 -24 -2
-23 -23 2 -12 14 -21 17 -25 10 -5 -8 -13 -6 -25 5 -17 15 -19 15 -29 -2 -6
-10 -11 -13 -11 -7 0 7 -7 14 -15 18 -8 3 -14 2 -14 -2z m431 -1124 c-7 -7
-12 -8 -12 -2 0 14 12 26 19 19 2 -3 -1 -11 -7 -17z"/>
<path d="M2055 2490 c3 -5 8 -10 11 -10 2 0 4 5 4 10 0 6 -5 10 -11 10 -5 0
-7 -4 -4 -10z"/>
<path d="M2100 2466 c0 -2 7 -9 15 -16 9 -7 15 -8 15 -2 0 5 -7 12 -15 16 -8
3 -15 4 -15 2z"/>
<path d="M595 1920 c-3 -5 -1 -10 4 -10 6 0 11 5 11 10 0 6 -2 10 -4 10 -3 0
-8 -4 -11 -10z"/>
</g>
</svg>
